<!-- Generated by IcoMoon.io -->
<svg version="1.1" xmlns="http://www.w3.org/2000/svg" width="32" height="32" viewBox="0 0 32 32">
<title>json</title>
<path d="M16.057 31.957c0.639-0.005 1.271-0.039 1.901-0.125 1.44-0.184 2.857-0.577 4.195-1.151 1.879-0.803 3.597-1.961 5.057-3.391 1.337-1.319 2.456-2.868 3.253-4.569 0.679-1.463 1.159-3.032 1.36-4.635 0.199-1.547 0.18-3.128-0.060-4.665-0.199-1.28-0.559-2.528-1.057-3.717-0.32-0.748-0.7-1.468-1.139-2.156-1.557-2.449-3.815-4.419-6.413-5.735-0.924-0.473-1.897-0.86-2.896-1.159h-0.007c0.159 0.084 0.32 0.176 0.46 0.268 0.16 0.099 0.319 0.195 0.468 0.3 0.759 0.513 1.459 1.103 2.079 1.773 1.417 1.527 2.396 3.397 2.957 5.388 0.379 1.309 0.579 2.664 0.66 4.023 0.059 0.991 0.059 1.988-0.063 2.972-0.199 1.693-0.739 3.347-1.637 4.795-0.66 1.071-1.52 2.025-2.537 2.779-1.659 1.237-3.836 1.976-5.915 1.485-0.339-0.081-0.68-0.195-0.997-0.344-0.361-0.165-0.72-0.369-1.039-0.599-0.62-0.415-1.18-0.913-1.659-1.475-0.58-0.693-1.059-1.481-1.399-2.329-0.419-1.075-0.639-2.229-0.659-3.387-0.040-1.697 0.3-3.404 1.139-4.893 0.56-0.992 1.319-1.861 2.217-2.557 0.3-0.237 0.619-0.444 0.939-0.639l0.021-0.009c-0.621-0.14-1.28-0.201-1.921-0.16-0.557 0.039-1.097 0.14-1.637 0.319-0.479 0.16-0.939 0.361-1.359 0.6-0.34 0.199-0.677 0.42-0.977 0.66-0.281 0.24-0.56 0.479-0.82 0.74-1.497 1.537-2.357 3.576-2.696 5.675-0.2 1.297-0.2 2.615-0.121 3.935 0.14 1.859 0.521 3.715 1.26 5.415 0.459 1.059 1.057 2.036 1.797 2.897 1.139 1.316 2.579 2.337 4.176 2.975 0.9 0.361 1.859 0.62 2.817 0.72 0.099 0.020 0.199 0.020 0.279 0.020zM12.145 31.427c-0.219-0.093-0.419-0.199-0.6-0.304-0.199-0.111-0.4-0.224-0.599-0.345-0.78-0.483-1.477-1.049-2.119-1.7-1.459-1.517-2.436-3.423-2.996-5.441-0.379-1.379-0.58-2.803-0.66-4.229-0.059-0.937-0.039-1.857 0.061-2.776 0.18-1.676 0.66-3.335 1.499-4.773 0.599-1.059 1.417-1.997 2.377-2.737 0.659-0.499 1.399-0.92 2.177-1.2 1.099-0.399 2.277-0.519 3.417-0.36 0.44 0.060 0.877 0.161 1.279 0.3 0.039 0 0.039 0 0.060 0.040 0.020 0.020 0.060 0.020 0.080 0.040 0.060 0.021 0.139 0.060 0.22 0.099 0.319 0.16 0.639 0.361 0.939 0.56 1.199 0.839 2.177 1.997 2.796 3.336 0.56 1.219 0.82 2.579 0.841 3.917 0.019 1.439-0.24 2.876-0.86 4.195-0.74 1.579-1.997 2.917-3.517 3.776 0.12 0.040 0.24 0.060 0.361 0.1 0.3 0.059 0.599 0.099 0.917 0.099 1.957 0.060 3.856-0.879 5.253-2.196 0.26-0.24 0.5-0.5 0.72-0.78 0.3-0.36 0.58-0.719 0.819-1.097 0.319-0.5 0.58-1 0.819-1.539 0.301-0.719 0.539-1.459 0.679-2.219 0.261-1.339 0.281-2.696 0.199-4.035-0.18-2.696-0.897-5.393-2.456-7.632-0.24-0.339-0.479-0.659-0.74-0.959-0.439-0.5-0.919-0.959-1.417-1.379-0.56-0.46-1.18-0.879-1.817-1.22-0.657-0.297-1.437-0.596-2.256-0.797l-0.4-0.080c-0.279-0.040-0.56-0.059-0.845-0.080-0.433-0.020-0.892-0.013-1.353 0.021-0.939 0.060-1.883 0.213-2.816 0.449-4.475 1.155-8.389 4.273-10.473 8.411-0.668 1.319-1.14 2.728-1.416 4.176-0.319 1.657-0.36 3.364-0.139 5.033 0.16 1.36 0.499 2.697 1.037 3.969 0.303 0.76 0.681 1.499 1.1 2.197 1.459 2.377 3.577 4.315 6.013 5.653 0.917 0.521 1.877 0.92 2.876 1.26 0.301 0.099 0.6 0.199 0.919 0.279z"></path>
</svg>
